<svg width="500" height="500" viewBox="0 0 500 500" fill="none" xmlns="http://www.w3.org/2000/svg">
<path d="M365.091 84.2328C344.169 84.2328 323.561 79.8548 303.833 71.2454C282.01 61.6935 262.992 47.5749 248.18 30C233.389 47.5749 214.372 61.6935 192.528 71.2454C172.799 79.8756 152.191 84.2328 131.27 84.2328C119.512 84.2328 108.047 82.8502 97 80.0851V254.514C97 351.795 158.238 437.972 249.729 470C341.22 437.972 402.457 351.795 402.457 254.514V79.2682C390.49 82.557 377.959 84.2328 365.091 84.2328Z" fill="#2F3161"/>
<path d="M296.467 86.2857C278.956 78.6399 262.593 67.9986 248.64 55.2626C234.685 67.9986 218.325 78.6399 200.812 86.2857C178.614 95.9843 155.371 100.907 131.729 100.907C126.812 100.907 121.875 100.697 117 100.258V251.623C117 337.57 170.371 415.327 250.189 446.245C330.004 415.307 383.374 337.57 383.374 251.623V99.9433C377.497 100.593 371.535 100.907 365.549 100.907C341.93 100.907 318.685 95.9843 296.487 86.2857H296.467Z" fill="#3D3F7B"/>
<mask id="mask0_67_31" style="mask-type:luminance" maskUnits="userSpaceOnUse" x="156" y="113" width="189" height="202">
<path d="M344.642 113.919H156V314.112H344.642V113.919Z" fill="white"/>
</mask>
<g mask="url(#mask0_67_31)">
<path d="M324.119 187.743C324.119 206.721 316.96 224.028 305.192 237.109C290.144 253.832 281.71 275.472 281.71 297.973V298.622H218.942V297.973C218.942 290.865 218.097 283.845 216.467 277.036C212.926 262.26 205.679 248.496 195.374 237.01C183.661 223.94 176.534 206.677 176.523 187.743C176.523 147.068 209.243 114.15 249.892 113.919C256.866 113.875 263.618 114.81 270.03 116.582C301.22 125.207 324.119 153.791 324.119 187.743Z" fill="#FDFDC8"/>
<path d="M248.913 311.637C248.913 311.637 246.602 266.176 287.441 254.657C328.265 243.127 333.512 225.502 333.512 225.502C333.512 225.502 343.091 264.206 318.388 293.604C292.894 323.959 248.913 311.637 248.913 311.637Z" fill="#07AD36"/>
<path d="M251.73 312.209C251.73 312.209 253.5 277.31 222.143 268.454C190.788 259.597 186.772 246.076 186.772 246.076C186.772 246.076 179.416 275.792 198.387 298.369C217.965 321.672 251.739 312.221 251.739 312.221L251.73 312.209Z" fill="#07AD36"/>
<path d="M294.445 205.566C294.445 209.857 296.075 214.203 299.593 217.602C297.998 217.14 296.415 216.942 294.885 216.942C284.184 216.942 275.594 227.328 278.763 238.451C275.353 234.931 271.009 233.302 266.731 233.302C259.449 233.302 252.345 238 250.32 246.076C248.297 238 241.181 233.302 233.899 233.302C229.61 233.302 225.268 234.931 221.868 238.451C222.331 236.856 222.539 235.272 222.539 233.742C222.539 223.037 212.157 214.445 201.038 217.613C203.82 214.918 205.426 211.639 205.954 208.273C206.107 207.37 206.174 206.479 206.174 205.577C206.174 198.294 201.477 191.186 193.406 189.162C199.003 187.754 202.973 183.914 204.875 179.249C205.723 177.192 206.162 174.97 206.162 172.736C206.162 168.445 204.535 164.099 201.017 160.7C202.612 161.162 204.195 161.36 205.723 161.36C216.435 161.36 225.025 150.974 221.847 139.851C225.256 143.372 229.601 145 233.879 145C241.158 145 248.276 140.302 250.299 132.227C252.081 139.334 257.799 143.823 264.113 144.791C269.194 145.572 274.65 144.087 278.74 139.84C278.279 141.435 278.08 143.019 278.08 144.549C278.08 150.369 281.138 155.562 285.714 158.576C289.563 161.129 294.489 162.13 299.57 160.689C296.051 164.099 294.424 168.445 294.424 172.725C294.424 180.008 299.121 187.116 307.192 189.14C299.121 191.164 294.424 198.272 294.424 205.555L294.445 205.566Z" fill="#FCC72D"/>
<g style="mix-blend-mode:multiply">
<path d="M286.658 189.151C286.658 209.219 270.393 225.502 250.32 225.502C237.288 225.502 225.86 218.637 219.449 208.328C215.984 202.761 213.993 196.193 213.993 189.151C213.993 169.084 230.261 152.8 250.331 152.8C256.479 152.8 262.275 154.33 267.347 157.036C278.839 163.142 286.649 175.234 286.649 189.151H286.658Z" fill="#FCC72D"/>
</g>
<path d="M334.524 127.155L335.7 123.458L336.876 127.155C338.153 131.193 340.936 134.57 344.653 136.605C340.936 138.641 338.153 142.018 336.876 146.056L335.7 149.753L334.524 146.056C333.246 142.018 330.464 138.641 326.747 136.605C330.464 134.57 333.246 131.193 334.524 127.155Z" fill="#FCC72D"/>
<path d="M163.776 225.04L164.953 221.343L166.129 225.04C167.405 229.077 170.188 232.455 173.905 234.49C170.188 236.526 167.405 239.903 166.129 243.941L164.953 247.638L163.776 243.941C162.5 239.903 159.717 236.526 156 234.49C159.717 232.455 162.5 229.077 163.776 225.04Z" fill="#FCC72D"/>
</g>
<path d="M427.444 387.817H375V322.273H427.444L405.387 355.033L427.444 387.817Z" fill="#F99B08"/>
<path d="M73 387.817H125.444V322.273H73L95.057 355.033L73 387.817Z" fill="#F99B08"/>
<path d="M399.419 299H102V368.818H399.419V299Z" fill="#F99B08"/>
<path d="M215.203 352.317C212.543 352.317 210.157 351.886 208.051 351.019C205.942 350.154 204.248 348.875 202.97 347.179C201.725 345.485 201.069 343.443 201 341.056H210.435C210.574 342.405 211.039 343.443 211.835 344.168C212.629 344.861 213.666 345.207 214.944 345.207C216.259 345.207 217.295 344.912 218.055 344.324C218.816 343.703 219.196 342.854 219.196 341.781C219.196 340.882 218.883 340.138 218.263 339.55C217.675 338.961 216.932 338.477 216.034 338.096C215.168 337.716 213.925 337.283 212.3 336.799C209.951 336.073 208.032 335.346 206.546 334.62C205.06 333.892 203.782 332.819 202.711 331.401C201.639 329.983 201.104 328.131 201.104 325.848C201.104 322.458 202.331 319.809 204.785 317.906C207.238 315.969 210.435 315 214.374 315C218.383 315 221.615 315.969 224.068 317.906C226.522 319.809 227.834 322.474 228.008 325.899H218.418C218.349 324.722 217.916 323.807 217.122 323.148C216.328 322.458 215.307 322.11 214.064 322.11C212.992 322.11 212.129 322.404 211.472 322.993C210.814 323.547 210.486 324.36 210.486 325.433C210.486 326.608 211.039 327.526 212.145 328.182C213.252 328.84 214.978 329.549 217.33 330.312C219.68 331.107 221.58 331.869 223.031 332.595C224.517 333.322 225.795 334.377 226.867 335.76C227.938 337.144 228.475 338.926 228.475 341.107C228.475 343.183 227.938 345.068 226.867 346.764C225.83 348.46 224.309 349.809 222.304 350.813C220.302 351.816 217.934 352.317 215.203 352.317ZM258.087 327.042C257.43 325.83 256.479 324.914 255.236 324.291C254.025 323.633 252.592 323.304 250.933 323.304C248.065 323.304 245.766 324.256 244.037 326.159C242.31 328.027 241.447 330.537 241.447 333.684C241.447 337.042 242.345 339.67 244.141 341.575C245.975 343.443 248.479 344.377 251.66 344.377C253.835 344.377 255.666 343.823 257.152 342.715C258.673 341.607 259.779 340.018 260.472 337.941H249.222V331.401H268.506V339.654C267.849 341.867 266.726 343.927 265.136 345.83C263.58 347.733 261.594 349.272 259.175 350.449C256.756 351.626 254.025 352.215 250.984 352.215C247.391 352.215 244.176 351.436 241.343 349.879C238.542 348.287 236.348 346.09 234.76 343.288C233.204 340.483 232.427 337.283 232.427 333.684C232.427 330.087 233.204 326.887 234.76 324.082C236.348 321.246 238.542 319.049 241.343 317.491C244.141 315.899 247.338 315.104 250.933 315.104C255.287 315.104 258.951 316.159 261.923 318.27C264.93 320.381 266.916 323.304 267.883 327.042H258.087ZM286.584 352.317C283.922 352.317 281.538 351.886 279.429 351.019C277.32 350.154 275.628 348.875 274.348 347.179C273.105 345.485 272.448 343.443 272.378 341.056H281.813C281.952 342.405 282.42 343.443 283.213 344.168C284.007 344.861 285.044 345.207 286.324 345.207C287.637 345.207 288.674 344.912 289.435 344.324C290.195 343.703 290.574 342.854 290.574 341.781C290.574 340.882 290.264 340.138 289.641 339.55C289.053 338.961 288.31 338.477 287.412 338.096C286.549 337.716 285.304 337.283 283.681 336.799C281.329 336.073 279.413 335.346 277.927 334.62C276.441 333.892 275.161 332.819 274.089 331.401C273.02 329.983 272.483 328.131 272.483 325.848C272.483 322.458 273.709 319.809 276.163 317.906C278.617 315.969 281.813 315 285.753 315C289.762 315 292.993 315.969 295.447 317.906C297.9 319.809 299.215 322.474 299.386 325.899H289.796C289.727 324.722 289.297 323.807 288.5 323.148C287.706 322.458 286.688 322.11 285.443 322.11C284.371 322.11 283.507 322.404 282.85 322.993C282.195 323.547 281.866 324.36 281.866 325.433C281.866 326.608 282.42 327.526 283.524 328.182C284.63 328.84 286.359 329.549 288.709 330.312C291.058 331.107 292.958 331.869 294.41 332.595C295.896 333.322 297.176 334.377 298.247 335.76C299.319 337.144 299.854 338.926 299.854 341.107C299.854 343.183 299.319 345.068 298.247 346.764C297.21 348.46 295.69 349.809 293.685 350.813C291.681 351.816 289.313 352.317 286.584 352.317Z" fill="white"/>
</svg>
